<mxfile host="65bd71144e">
    <diagram id="06IbtNXLgIfeKJk-ymKH" name="Page-1">
        <mxGraphModel dx="2283" dy="391" grid="0" gridSize="10" guides="1" tooltips="1" connect="1" arrows="1" fold="1" page="0" pageScale="1" pageWidth="850" pageHeight="1100" background="#FFFFFF" math="0" shadow="0">
            <root>
                <mxCell id="0"/>
                <mxCell id="1" parent="0"/>
                <mxCell id="87" value="" style="rounded=0;whiteSpace=wrap;html=1;fillColor=#b1ddf0;strokeColor=#10739e;fontSize=16;" parent="1" vertex="1">
                    <mxGeometry x="2291" y="221" width="502" height="164" as="geometry"/>
                </mxCell>
                <mxCell id="89" value="" style="rounded=0;whiteSpace=wrap;html=1;fillColor=#d5e8d4;strokeColor=#82b366;fontSize=16;" parent="1" vertex="1">
                    <mxGeometry x="2397" y="236" width="361" height="84" as="geometry"/>
                </mxCell>
                <mxCell id="104" value="" style="rounded=0;whiteSpace=wrap;html=1;fillColor=#f8cecc;strokeColor=#b85450;fontSize=16;" parent="1" vertex="1">
                    <mxGeometry x="2658" y="265" width="80" height="40" as="geometry"/>
                </mxCell>
                <mxCell id="107" value="&lt;font style=&quot;font-size: 12px;&quot;&gt;Photodetector and TIA&lt;/font&gt;" style="text;html=1;strokeColor=none;fillColor=none;align=center;verticalAlign=middle;whiteSpace=wrap;rounded=0;fontColor=#000000;fontSize=12;" parent="1" vertex="1">
                    <mxGeometry x="2669" y="270" width="60" height="30" as="geometry"/>
                </mxCell>
                <mxCell id="50" value="" style="pointerEvents=1;fillColor=#1ba1e2;verticalLabelPosition=bottom;shadow=0;dashed=0;align=center;html=1;verticalAlign=top;shape=mxgraph.electrical.diodes.diode;rotation=-90;fontColor=#000000;strokeColor=#006EAF;" parent="1" vertex="1">
                    <mxGeometry x="314.62" y="255.5" width="80" height="35" as="geometry"/>
                </mxCell>
                <mxCell id="51" style="edgeStyle=none;html=1;startArrow=classic;startFill=1;endArrow=none;endFill=0;strokeWidth=3;fontColor=#000000;strokeColor=#000000;" parent="1" source="53" edge="1">
                    <mxGeometry relative="1" as="geometry">
                        <mxPoint x="-20" y="188" as="targetPoint"/>
                    </mxGeometry>
                </mxCell>
                <mxCell id="52" style="edgeStyle=none;curved=1;html=1;exitX=0;exitY=0.5;exitDx=0;exitDy=0;exitPerimeter=0;entryX=1;entryY=0.5;entryDx=0;entryDy=0;entryPerimeter=0;startArrow=none;startFill=0;endArrow=none;endFill=0;strokeWidth=1;fillColor=#1ba1e2;strokeColor=#006EAF;fontColor=#000000;" parent="1" source="53" target="50" edge="1">
                    <mxGeometry relative="1" as="geometry"/>
                </mxCell>
                <mxCell id="53" value="" style="pointerEvents=1;fillColor=#1BA1E2;verticalLabelPosition=bottom;shadow=0;dashed=0;align=center;html=1;verticalAlign=top;shape=mxgraph.electrical.diodes.diode;rotation=-90;fontColor=#000000;strokeColor=#006EAF;" parent="1" vertex="1">
                    <mxGeometry x="313.37" y="170" width="81.25" height="35" as="geometry"/>
                </mxCell>
                <mxCell id="54" value="" style="ellipse;whiteSpace=wrap;html=1;aspect=fixed;strokeColor=#FF0000;strokeWidth=3;fontColor=#000000;fillColor=#FFFFFF;" parent="1" vertex="1">
                    <mxGeometry x="20" y="190" width="42" height="42" as="geometry"/>
                </mxCell>
                <mxCell id="55" value="" style="ellipse;whiteSpace=wrap;html=1;aspect=fixed;strokeColor=#FF0000;strokeWidth=3;fontColor=#000000;fillColor=#FFFFFF;" parent="1" vertex="1">
                    <mxGeometry x="20" y="232" width="42" height="42" as="geometry"/>
                </mxCell>
                <mxCell id="56" value="" style="ellipse;whiteSpace=wrap;html=1;aspect=fixed;strokeColor=#66CC00;strokeWidth=3;fontColor=#000000;fillColor=#FFFFFF;" parent="1" vertex="1">
                    <mxGeometry x="80" y="190" width="42" height="42" as="geometry"/>
                </mxCell>
                <mxCell id="57" value="" style="ellipse;whiteSpace=wrap;html=1;aspect=fixed;strokeColor=#66CC00;strokeWidth=3;fontColor=#000000;fillColor=#FFFFFF;" parent="1" vertex="1">
                    <mxGeometry x="80" y="232" width="42" height="42" as="geometry"/>
                </mxCell>
                <mxCell id="58" value="" style="ellipse;whiteSpace=wrap;html=1;aspect=fixed;strokeColor=#0000CC;strokeWidth=3;fontColor=#000000;fillColor=#FFFFFF;" parent="1" vertex="1">
                    <mxGeometry x="140" y="190" width="42" height="42" as="geometry"/>
                </mxCell>
                <mxCell id="59" value="" style="ellipse;whiteSpace=wrap;html=1;aspect=fixed;strokeColor=#0000CC;strokeWidth=3;fontColor=#000000;fillColor=#FFFFFF;" parent="1" vertex="1">
                    <mxGeometry x="140" y="232" width="42" height="42" as="geometry"/>
                </mxCell>
                <mxCell id="60" value="" style="ellipse;whiteSpace=wrap;html=1;aspect=fixed;strokeColor=#CC00CC;strokeWidth=3;fontColor=#000000;fillColor=#FFFFFF;" parent="1" vertex="1">
                    <mxGeometry x="260" y="190" width="42" height="42" as="geometry"/>
                </mxCell>
                <mxCell id="61" value="" style="ellipse;whiteSpace=wrap;html=1;aspect=fixed;strokeColor=#CC00CC;strokeWidth=3;fontColor=#000000;fillColor=#FFFFFF;" parent="1" vertex="1">
                    <mxGeometry x="260" y="232" width="42" height="42" as="geometry"/>
                </mxCell>
                <mxCell id="62" value="" style="ellipse;whiteSpace=wrap;html=1;aspect=fixed;strokeColor=none;strokeWidth=3;fillColor=#000000;fontColor=#000000;" parent="1" vertex="1">
                    <mxGeometry x="200" y="232" width="5" height="5" as="geometry"/>
                </mxCell>
                <mxCell id="63" value="" style="ellipse;whiteSpace=wrap;html=1;aspect=fixed;strokeColor=none;strokeWidth=3;fillColor=#000000;fontColor=#000000;" parent="1" vertex="1">
                    <mxGeometry x="220" y="232" width="5" height="5" as="geometry"/>
                </mxCell>
                <mxCell id="64" value="" style="ellipse;whiteSpace=wrap;html=1;aspect=fixed;strokeColor=none;strokeWidth=3;fillColor=#000000;fontColor=#000000;" parent="1" vertex="1">
                    <mxGeometry x="240" y="232" width="5" height="5" as="geometry"/>
                </mxCell>
                <mxCell id="65" style="edgeStyle=none;curved=1;html=1;exitX=0.5;exitY=0;exitDx=0;exitDy=0;exitPerimeter=0;entryX=1;entryY=0.5;entryDx=0;entryDy=0;entryPerimeter=0;startArrow=none;startFill=0;endArrow=none;endFill=0;strokeWidth=1;fillColor=#1ba1e2;strokeColor=#006EAF;fontColor=#000000;" parent="1" source="66" target="53" edge="1">
                    <mxGeometry relative="1" as="geometry"/>
                </mxCell>
                <mxCell id="66" value="V&lt;sub&gt;dd&lt;/sub&gt;" style="verticalLabelPosition=top;verticalAlign=bottom;shape=mxgraph.electrical.signal_sources.vdd;shadow=0;dashed=0;align=center;strokeWidth=1;fontSize=24;html=1;flipV=1;fillColor=#1ba1e2;fontColor=#000000;strokeColor=#006EAF;" parent="1" vertex="1">
                    <mxGeometry x="324.62" y="104" width="60" height="40" as="geometry"/>
                </mxCell>
                <mxCell id="67" style="edgeStyle=none;curved=1;html=1;exitX=0.5;exitY=0;exitDx=0;exitDy=0;exitPerimeter=0;entryX=0;entryY=0.5;entryDx=0;entryDy=0;entryPerimeter=0;startArrow=none;startFill=0;endArrow=none;endFill=0;strokeWidth=1;fillColor=#1ba1e2;strokeColor=#006EAF;fontColor=#000000;" parent="1" source="68" target="50" edge="1">
                    <mxGeometry relative="1" as="geometry"/>
                </mxCell>
                <mxCell id="68" value="" style="pointerEvents=1;verticalLabelPosition=bottom;shadow=0;dashed=0;align=center;html=1;verticalAlign=top;shape=mxgraph.electrical.signal_sources.protective_earth;strokeColor=#006EAF;strokeWidth=1;fillColor=#1ba1e2;fontColor=#000000;" parent="1" vertex="1">
                    <mxGeometry x="342.12" y="345.5" width="25" height="20" as="geometry"/>
                </mxCell>
                <mxCell id="69" style="edgeStyle=none;curved=1;html=1;exitX=0.5;exitY=1;exitDx=0;exitDy=0;exitPerimeter=0;entryX=1.003;entryY=-4.4;entryDx=0;entryDy=0;entryPerimeter=0;fontSize=16;startArrow=none;startFill=0;endArrow=none;endFill=0;strokeWidth=1;fillColor=#1ba1e2;strokeColor=#006EAF;fontColor=#000000;" parent="1" source="70" target="74" edge="1">
                    <mxGeometry relative="1" as="geometry"/>
                </mxCell>
                <mxCell id="70" value="" style="pointerEvents=1;verticalLabelPosition=bottom;shadow=0;dashed=0;align=center;html=1;verticalAlign=top;shape=mxgraph.electrical.signal_sources.source;aspect=fixed;points=[[0.5,0,0],[1,0.5,0],[0.5,1,0],[0,0.5,0]];elSignalType=dc2;strokeColor=#006EAF;strokeWidth=1;fillColor=#1ba1e2;fontColor=#000000;" parent="1" vertex="1">
                    <mxGeometry x="447.74" y="95.5" width="40" height="40" as="geometry"/>
                </mxCell>
                <mxCell id="71" style="edgeStyle=none;curved=1;html=1;startArrow=none;startFill=0;endArrow=classic;endFill=1;strokeWidth=3;fillColor=#e51400;strokeColor=#FF0000;fontColor=#000000;" parent="1" source="73" edge="1">
                    <mxGeometry relative="1" as="geometry">
                        <mxPoint x="670" y="232.00000000000023" as="targetPoint"/>
                        <Array as="points"/>
                    </mxGeometry>
                </mxCell>
                <mxCell id="72" style="edgeStyle=none;curved=1;html=1;exitX=-0.002;exitY=0.46;exitDx=0;exitDy=0;fontSize=16;startArrow=none;startFill=0;endArrow=none;endFill=0;strokeWidth=1;exitPerimeter=0;fillColor=#1ba1e2;strokeColor=#006EAF;fontColor=#000000;" parent="1" source="73" edge="1">
                    <mxGeometry relative="1" as="geometry">
                        <mxPoint x="465" y="230" as="targetPoint"/>
                    </mxGeometry>
                </mxCell>
                <mxCell id="73" value="&lt;font style=&quot;font-size: 16px&quot;&gt;Laser Neuron&lt;/font&gt;" style="rounded=0;whiteSpace=wrap;html=1;strokeColor=#000000;strokeWidth=1;fillColor=#CCCCCC;fontColor=#000000;" parent="1" vertex="1">
                    <mxGeometry x="485" y="212" width="80" height="40" as="geometry"/>
                </mxCell>
                <mxCell id="74" value="" style="endArrow=oval;html=1;strokeWidth=1;curved=1;entryX=-0.4;entryY=0.803;entryDx=0;entryDy=0;entryPerimeter=0;fillColor=#1ba1e2;strokeColor=#006EAF;startArrow=oval;startFill=1;endFill=1;fontColor=#000000;" parent="1" edge="1">
                    <mxGeometry width="50" height="50" relative="1" as="geometry">
                        <mxPoint x="353" y="228.99999999999977" as="sourcePoint"/>
                        <mxPoint x="465.66666666666697" y="229.29999999999995" as="targetPoint"/>
                    </mxGeometry>
                </mxCell>
                <mxCell id="75" value="&lt;font style=&quot;font-size: 18px&quot;&gt;WDM Input&lt;/font&gt;" style="text;html=1;align=center;verticalAlign=middle;resizable=0;points=[];autosize=1;strokeColor=none;fillColor=none;fontColor=#000000;" parent="1" vertex="1">
                    <mxGeometry x="-50" y="161" width="100" height="19" as="geometry"/>
                </mxCell>
                <mxCell id="76" value="&lt;font style=&quot;font-size: 18px&quot;&gt;Excitatory&lt;/font&gt;" style="text;html=1;align=center;verticalAlign=middle;resizable=0;points=[];autosize=1;strokeColor=none;fillColor=none;fontColor=#000000;" parent="1" vertex="1">
                    <mxGeometry x="240" y="151" width="89" height="19" as="geometry"/>
                </mxCell>
                <mxCell id="77" value="&lt;font style=&quot;font-size: 18px&quot;&gt;Inhibitory&lt;/font&gt;" style="text;html=1;align=center;verticalAlign=middle;resizable=0;points=[];autosize=1;strokeColor=none;fillColor=none;fontColor=#000000;" parent="1" vertex="1">
                    <mxGeometry x="255.88" y="326" width="83" height="19" as="geometry"/>
                </mxCell>
                <mxCell id="78" value="&lt;font style=&quot;font-size: 16px&quot;&gt;Pumping Current&lt;/font&gt;" style="text;html=1;strokeColor=none;fillColor=none;align=center;verticalAlign=middle;whiteSpace=wrap;rounded=0;fontColor=#000000;" parent="1" vertex="1">
                    <mxGeometry x="437.74" y="56.5" width="60" height="30" as="geometry"/>
                </mxCell>
                <mxCell id="79" value="" style="endArrow=none;html=1;strokeWidth=3;curved=1;fontColor=#000000;strokeColor=#000000;" parent="1" edge="1">
                    <mxGeometry width="50" height="50" relative="1" as="geometry">
                        <mxPoint x="-5.499999999999773" y="22.000000000000227" as="sourcePoint"/>
                        <mxPoint x="40" y="22.000000000000227" as="targetPoint"/>
                    </mxGeometry>
                </mxCell>
                <mxCell id="80" value="" style="endArrow=none;html=1;strokeWidth=1;curved=1;fillColor=#1ba1e2;strokeColor=#006EAF;fontColor=#000000;" parent="1" edge="1">
                    <mxGeometry width="50" height="50" relative="1" as="geometry">
                        <mxPoint x="-5.499999999999773" y="82.00000000000023" as="sourcePoint"/>
                        <mxPoint x="40" y="82.00000000000023" as="targetPoint"/>
                    </mxGeometry>
                </mxCell>
                <mxCell id="81" value="" style="endArrow=none;html=1;strokeWidth=3;curved=1;fillColor=#e51400;strokeColor=#B20000;fontColor=#000000;" parent="1" edge="1">
                    <mxGeometry width="50" height="50" relative="1" as="geometry">
                        <mxPoint x="-5.499999999999773" y="52.00000000000023" as="sourcePoint"/>
                        <mxPoint x="40" y="52.00000000000023" as="targetPoint"/>
                    </mxGeometry>
                </mxCell>
                <mxCell id="82" value="&lt;font style=&quot;font-size: 14px&quot;&gt;WDM Light&lt;/font&gt;" style="text;html=1;strokeColor=none;fillColor=none;align=center;verticalAlign=middle;whiteSpace=wrap;rounded=0;fontColor=#000000;" parent="1" vertex="1">
                    <mxGeometry x="49" y="8" width="94" height="30" as="geometry"/>
                </mxCell>
                <mxCell id="83" value="&lt;font style=&quot;font-size: 14px&quot;&gt;Single Wavelength Light&lt;/font&gt;" style="text;html=1;align=center;verticalAlign=middle;resizable=0;points=[];autosize=1;strokeColor=none;fillColor=none;fontColor=#000000;" parent="1" vertex="1">
                    <mxGeometry x="39" y="43" width="160" height="18" as="geometry"/>
                </mxCell>
                <mxCell id="84" value="&lt;font style=&quot;font-size: 14px&quot;&gt;Electrical Connection&lt;/font&gt;" style="text;html=1;align=center;verticalAlign=middle;resizable=0;points=[];autosize=1;strokeColor=none;fillColor=none;fontColor=#000000;" parent="1" vertex="1">
                    <mxGeometry x="40" y="73" width="141" height="18" as="geometry"/>
                </mxCell>
                <mxCell id="85" value="" style="endArrow=classic;html=1;fontSize=16;strokeWidth=3;curved=1;entryX=0.52;entryY=1.115;entryDx=0;entryDy=0;entryPerimeter=0;exitX=0.337;exitY=-0.1;exitDx=0;exitDy=0;exitPerimeter=0;strokeColor=#FF0000;fontColor=#000000;" parent="1" source="71" target="50" edge="1">
                    <mxGeometry width="50" height="50" relative="1" as="geometry">
                        <mxPoint x="606.74" y="234.5" as="sourcePoint"/>
                        <mxPoint x="463.74" y="241.5" as="targetPoint"/>
                        <Array as="points">
                            <mxPoint x="625" y="232"/>
                            <mxPoint x="624.74" y="259.5"/>
                            <mxPoint x="593.74" y="271.5"/>
                        </Array>
                    </mxGeometry>
                </mxCell>
                <mxCell id="86" style="edgeStyle=none;html=1;startArrow=classic;startFill=1;endArrow=none;endFill=0;strokeWidth=3;fontColor=#000000;strokeColor=#000000;" parent="1" edge="1">
                    <mxGeometry relative="1" as="geometry">
                        <mxPoint x="34" y="273.9999999999998" as="targetPoint"/>
                        <mxPoint x="338.8850000000002" y="274.0032166310675" as="sourcePoint"/>
                    </mxGeometry>
                </mxCell>
                <mxCell id="88" value="Off-Chip" style="text;html=1;align=center;verticalAlign=middle;whiteSpace=wrap;rounded=0;fontColor=#000000;fontSize=16;" parent="1" vertex="1">
                    <mxGeometry x="2291" y="222" width="66" height="30" as="geometry"/>
                </mxCell>
                <mxCell id="90" value="On-Chip" style="text;html=1;strokeColor=none;fillColor=none;align=center;verticalAlign=middle;whiteSpace=wrap;rounded=0;fontColor=#000000;fontSize=16;" parent="1" vertex="1">
                    <mxGeometry x="2397" y="235" width="63" height="30" as="geometry"/>
                </mxCell>
                <mxCell id="111" style="edgeStyle=orthogonalEdgeStyle;html=1;exitX=1;exitY=0.5;exitDx=0;exitDy=0;entryX=0;entryY=0.5;entryDx=0;entryDy=0;fontSize=16;fontColor=#000000;strokeColor=#FF0080;strokeWidth=2;" parent="1" source="91" target="101" edge="1">
                    <mxGeometry relative="1" as="geometry"/>
                </mxCell>
                <mxCell id="91" value="" style="rounded=0;whiteSpace=wrap;html=1;fillColor=#ffe6cc;strokeColor=#d79b00;fontSize=16;" parent="1" vertex="1">
                    <mxGeometry x="2303" y="265.5" width="80" height="40" as="geometry"/>
                </mxCell>
                <mxCell id="92" value="Laser Sources" style="text;html=1;strokeColor=none;fillColor=none;align=center;verticalAlign=middle;whiteSpace=wrap;rounded=0;fontColor=#000000;fontSize=16;" parent="1" vertex="1">
                    <mxGeometry x="2313" y="265.5" width="60" height="39" as="geometry"/>
                </mxCell>
                <mxCell id="109" style="edgeStyle=orthogonalEdgeStyle;html=1;exitX=0;exitY=0.5;exitDx=0;exitDy=0;dashed=1;fontSize=16;fontColor=#000000;strokeColor=#000000;strokeWidth=2;entryX=0.5;entryY=1;entryDx=0;entryDy=0;" parent="1" source="93" target="101" edge="1">
                    <mxGeometry relative="1" as="geometry">
                        <mxPoint x="2463" y="313" as="targetPoint"/>
                    </mxGeometry>
                </mxCell>
                <mxCell id="110" style="edgeStyle=orthogonalEdgeStyle;html=1;exitX=0.5;exitY=0;exitDx=0;exitDy=0;entryX=0.5;entryY=1;entryDx=0;entryDy=0;dashed=1;fontSize=16;fontColor=#000000;strokeColor=#000000;strokeWidth=2;" parent="1" source="93" target="102" edge="1">
                    <mxGeometry relative="1" as="geometry">
                        <Array as="points">
                            <mxPoint x="2577" y="342"/>
                            <mxPoint x="2577" y="342"/>
                        </Array>
                    </mxGeometry>
                </mxCell>
                <mxCell id="93" value="" style="rounded=0;whiteSpace=wrap;html=1;fillColor=#ffe6cc;strokeColor=#d79b00;fontSize=16;" parent="1" vertex="1">
                    <mxGeometry x="2537" y="335.5" width="80" height="40" as="geometry"/>
                </mxCell>
                <mxCell id="94" value="FPGA" style="text;html=1;strokeColor=none;fillColor=none;align=center;verticalAlign=middle;whiteSpace=wrap;rounded=0;fontColor=#000000;fontSize=16;" parent="1" vertex="1">
                    <mxGeometry x="2547" y="340.5" width="60" height="30" as="geometry"/>
                </mxCell>
                <mxCell id="117" style="edgeStyle=orthogonalEdgeStyle;html=1;exitX=0;exitY=0.5;exitDx=0;exitDy=0;entryX=1;entryY=0.5;entryDx=0;entryDy=0;fontSize=16;fontColor=#000000;strokeColor=#000000;strokeWidth=2;" parent="1" source="95" target="93" edge="1">
                    <mxGeometry relative="1" as="geometry"/>
                </mxCell>
                <mxCell id="95" value="" style="rounded=0;whiteSpace=wrap;html=1;fillColor=#ffe6cc;strokeColor=#d79b00;fontSize=16;" parent="1" vertex="1">
                    <mxGeometry x="2659" y="335.5" width="80" height="40" as="geometry"/>
                </mxCell>
                <mxCell id="99" value="ADC" style="text;html=1;strokeColor=none;fillColor=none;align=center;verticalAlign=middle;whiteSpace=wrap;rounded=0;fontColor=#000000;fontSize=16;" parent="1" vertex="1">
                    <mxGeometry x="2669" y="340.5" width="60" height="30" as="geometry"/>
                </mxCell>
                <mxCell id="113" style="edgeStyle=orthogonalEdgeStyle;html=1;exitX=1;exitY=0.5;exitDx=0;exitDy=0;entryX=0;entryY=0.5;entryDx=0;entryDy=0;fontSize=16;fontColor=#000000;strokeColor=#FF0080;strokeWidth=2;" parent="1" source="101" target="102" edge="1">
                    <mxGeometry relative="1" as="geometry"/>
                </mxCell>
                <mxCell id="101" value="" style="rounded=0;whiteSpace=wrap;html=1;fillColor=#f8cecc;strokeColor=#b85450;fontSize=16;" parent="1" vertex="1">
                    <mxGeometry x="2417" y="265.5" width="80" height="40" as="geometry"/>
                </mxCell>
                <mxCell id="114" style="edgeStyle=orthogonalEdgeStyle;html=1;exitX=1;exitY=0.5;exitDx=0;exitDy=0;entryX=0;entryY=0.5;entryDx=0;entryDy=0;fontSize=16;fontColor=#000000;strokeColor=#FF0080;strokeWidth=2;" parent="1" source="102" target="104" edge="1">
                    <mxGeometry relative="1" as="geometry"/>
                </mxCell>
                <mxCell id="102" value="" style="rounded=0;whiteSpace=wrap;html=1;fillColor=#f8cecc;strokeColor=#b85450;fontSize=16;" parent="1" vertex="1">
                    <mxGeometry x="2537" y="265.5" width="80" height="40" as="geometry"/>
                </mxCell>
                <mxCell id="115" style="edgeStyle=orthogonalEdgeStyle;html=1;exitX=0.5;exitY=1;exitDx=0;exitDy=0;entryX=0.5;entryY=0;entryDx=0;entryDy=0;fontSize=16;fontColor=#000000;strokeColor=#000000;strokeWidth=2;" parent="1" source="107" target="95" edge="1">
                    <mxGeometry relative="1" as="geometry"/>
                </mxCell>
                <mxCell id="105" value="MRR Modulators" style="text;html=1;strokeColor=none;fillColor=none;align=center;verticalAlign=middle;whiteSpace=wrap;rounded=0;fontColor=#000000;fontSize=15;" parent="1" vertex="1">
                    <mxGeometry x="2427" y="270.5" width="60" height="30" as="geometry"/>
                </mxCell>
                <mxCell id="106" value="MRR Weights" style="text;html=1;strokeColor=none;fillColor=none;align=center;verticalAlign=middle;whiteSpace=wrap;rounded=0;fontColor=#000000;fontSize=16;" parent="1" vertex="1">
                    <mxGeometry x="2547" y="270" width="60" height="30" as="geometry"/>
                </mxCell>
                <mxCell id="118" value="" style="endArrow=none;html=1;fontSize=16;fontColor=#000000;strokeColor=#000000;strokeWidth=2;" parent="1" edge="1">
                    <mxGeometry width="50" height="50" relative="1" as="geometry">
                        <mxPoint x="2801" y="272" as="sourcePoint"/>
                        <mxPoint x="2821" y="272" as="targetPoint"/>
                    </mxGeometry>
                </mxCell>
                <mxCell id="119" value="" style="endArrow=none;html=1;fontSize=16;fontColor=#000000;strokeColor=#000000;strokeWidth=2;dashed=1;" parent="1" edge="1">
                    <mxGeometry width="50" height="50" relative="1" as="geometry">
                        <mxPoint x="2801" y="293" as="sourcePoint"/>
                        <mxPoint x="2821" y="293" as="targetPoint"/>
                        <Array as="points">
                            <mxPoint x="2811" y="293"/>
                        </Array>
                    </mxGeometry>
                </mxCell>
                <mxCell id="120" value="" style="endArrow=none;html=1;fontSize=16;fontColor=#000000;strokeColor=#FF0080;strokeWidth=2;" parent="1" edge="1">
                    <mxGeometry width="50" height="50" relative="1" as="geometry">
                        <mxPoint x="2801" y="316.5" as="sourcePoint"/>
                        <mxPoint x="2821" y="316.5" as="targetPoint"/>
                    </mxGeometry>
                </mxCell>
                <mxCell id="121" value="Electrical" style="text;html=1;strokeColor=none;fillColor=none;align=left;verticalAlign=middle;whiteSpace=wrap;rounded=0;fontSize=16;fontColor=#000000;" parent="1" vertex="1">
                    <mxGeometry x="2821" y="267" width="60" height="12" as="geometry"/>
                </mxCell>
                <mxCell id="122" value="Control" style="text;html=1;strokeColor=none;fillColor=none;align=left;verticalAlign=middle;whiteSpace=wrap;rounded=0;fontSize=16;fontColor=#000000;" parent="1" vertex="1">
                    <mxGeometry x="2821" y="287" width="60" height="15" as="geometry"/>
                </mxCell>
                <mxCell id="123" value="Optical" style="text;html=1;strokeColor=none;fillColor=none;align=left;verticalAlign=middle;whiteSpace=wrap;rounded=0;fontSize=16;fontColor=#000000;" parent="1" vertex="1">
                    <mxGeometry x="2821" y="310" width="60" height="16" as="geometry"/>
                </mxCell>
                <mxCell id="184" style="edgeStyle=orthogonalEdgeStyle;html=1;exitX=0;exitY=0.835;exitDx=0;exitDy=0;exitPerimeter=0;entryX=1;entryY=0;entryDx=0;entryDy=0;entryPerimeter=0;fontSize=20;fontColor=#000000;endArrow=none;endFill=0;strokeColor=#006EAF;strokeWidth=1;" parent="1" source="124" target="167" edge="1">
                    <mxGeometry relative="1" as="geometry">
                        <Array as="points">
                            <mxPoint x="656" y="794"/>
                        </Array>
                    </mxGeometry>
                </mxCell>
                <mxCell id="200" style="edgeStyle=orthogonalEdgeStyle;html=1;exitX=0;exitY=0.165;exitDx=0;exitDy=0;exitPerimeter=0;entryX=0.489;entryY=1.575;entryDx=0;entryDy=0;entryPerimeter=0;fontSize=20;fontColor=#000000;endArrow=oval;endFill=1;strokeColor=#006EAF;strokeWidth=1;" parent="1" source="124" target="181" edge="1">
                    <mxGeometry relative="1" as="geometry">
                        <Array as="points">
                            <mxPoint x="731" y="748"/>
                            <mxPoint x="731" y="727"/>
                            <mxPoint x="850" y="727"/>
                            <mxPoint x="850" y="770"/>
                            <mxPoint x="849" y="770"/>
                            <mxPoint x="849" y="775"/>
                            <mxPoint x="850" y="775"/>
                        </Array>
                    </mxGeometry>
                </mxCell>
                <mxCell id="124" value="" style="verticalLabelPosition=bottom;shadow=0;dashed=0;align=center;html=1;verticalAlign=top;shape=mxgraph.electrical.abstract.operational_amp_1;fontSize=20;fontColor=#000000;fillColor=#1BA1E2;strokeColor=#006EAF;" parent="1" vertex="1">
                    <mxGeometry x="741.37" y="736.5" width="80" height="70" as="geometry"/>
                </mxCell>
                <mxCell id="125" value="" style="pointerEvents=1;fillColor=#1ba1e2;verticalLabelPosition=bottom;shadow=0;dashed=0;align=center;html=1;verticalAlign=top;shape=mxgraph.electrical.diodes.diode;rotation=-90;fontColor=#000000;strokeColor=#006EAF;fontSize=20;" parent="1" vertex="1">
                    <mxGeometry x="239.37" y="814.5" width="80" height="35" as="geometry"/>
                </mxCell>
                <mxCell id="126" style="edgeStyle=none;html=1;startArrow=classic;startFill=1;endArrow=none;endFill=0;strokeWidth=3;fontColor=#000000;strokeColor=#000000;fontSize=20;" parent="1" source="128" edge="1">
                    <mxGeometry relative="1" as="geometry">
                        <mxPoint x="122.75" y="747" as="targetPoint"/>
                    </mxGeometry>
                </mxCell>
                <mxCell id="127" style="edgeStyle=none;curved=1;html=1;exitX=0;exitY=0.5;exitDx=0;exitDy=0;exitPerimeter=0;entryX=1;entryY=0.5;entryDx=0;entryDy=0;entryPerimeter=0;startArrow=none;startFill=0;endArrow=none;endFill=0;strokeWidth=1;fillColor=#1ba1e2;strokeColor=#006EAF;fontColor=#000000;fontSize=20;" parent="1" source="128" target="125" edge="1">
                    <mxGeometry relative="1" as="geometry"/>
                </mxCell>
                <mxCell id="128" value="" style="pointerEvents=1;fillColor=#1BA1E2;verticalLabelPosition=bottom;shadow=0;dashed=0;align=center;html=1;verticalAlign=top;shape=mxgraph.electrical.diodes.diode;rotation=-90;fontColor=#000000;strokeColor=#006EAF;fontSize=20;" parent="1" vertex="1">
                    <mxGeometry x="238.75" y="729" width="81.25" height="35" as="geometry"/>
                </mxCell>
                <mxCell id="137" value="" style="ellipse;whiteSpace=wrap;html=1;aspect=fixed;strokeColor=none;strokeWidth=3;fillColor=#000000;fontColor=#000000;fontSize=20;" parent="1" vertex="1">
                    <mxGeometry x="124.75" y="791" width="5" height="5" as="geometry"/>
                </mxCell>
                <mxCell id="138" value="" style="ellipse;whiteSpace=wrap;html=1;aspect=fixed;strokeColor=none;strokeWidth=3;fillColor=#000000;fontColor=#000000;fontSize=20;" parent="1" vertex="1">
                    <mxGeometry x="144.75" y="791" width="5" height="5" as="geometry"/>
                </mxCell>
                <mxCell id="139" value="" style="ellipse;whiteSpace=wrap;html=1;aspect=fixed;strokeColor=none;strokeWidth=3;fillColor=#000000;fontColor=#000000;fontSize=20;" parent="1" vertex="1">
                    <mxGeometry x="164.75" y="791" width="5" height="5" as="geometry"/>
                </mxCell>
                <mxCell id="140" style="edgeStyle=none;curved=1;html=1;exitX=0.5;exitY=0;exitDx=0;exitDy=0;exitPerimeter=0;entryX=1;entryY=0.5;entryDx=0;entryDy=0;entryPerimeter=0;startArrow=none;startFill=0;endArrow=none;endFill=0;strokeWidth=1;fillColor=#1ba1e2;strokeColor=#006EAF;fontColor=#000000;fontSize=20;" parent="1" source="141" target="128" edge="1">
                    <mxGeometry relative="1" as="geometry"/>
                </mxCell>
                <mxCell id="141" value="V&lt;sub style=&quot;font-size: 20px;&quot;&gt;dd&lt;/sub&gt;" style="verticalLabelPosition=top;verticalAlign=bottom;shape=mxgraph.electrical.signal_sources.vdd;shadow=0;dashed=0;align=center;strokeWidth=1;fontSize=20;html=1;flipV=1;fillColor=#1ba1e2;fontColor=#000000;strokeColor=#006EAF;" parent="1" vertex="1">
                    <mxGeometry x="249.37" y="663" width="60" height="40" as="geometry"/>
                </mxCell>
                <mxCell id="142" style="edgeStyle=none;curved=1;html=1;exitX=0.5;exitY=0;exitDx=0;exitDy=0;exitPerimeter=0;entryX=0;entryY=0.5;entryDx=0;entryDy=0;entryPerimeter=0;startArrow=none;startFill=0;endArrow=none;endFill=0;strokeWidth=1;fillColor=#1ba1e2;strokeColor=#006EAF;fontColor=#000000;fontSize=20;" parent="1" source="143" target="125" edge="1">
                    <mxGeometry relative="1" as="geometry"/>
                </mxCell>
                <mxCell id="143" value="" style="pointerEvents=1;verticalLabelPosition=bottom;shadow=0;dashed=0;align=center;html=1;verticalAlign=top;shape=mxgraph.electrical.signal_sources.protective_earth;strokeColor=#006EAF;strokeWidth=1;fillColor=#1ba1e2;fontColor=#000000;fontSize=20;" parent="1" vertex="1">
                    <mxGeometry x="266.87" y="904.5" width="25" height="20" as="geometry"/>
                </mxCell>
                <mxCell id="144" style="edgeStyle=none;curved=1;html=1;exitX=0.5;exitY=1;exitDx=0;exitDy=0;exitPerimeter=0;entryX=0.061;entryY=-1.98;entryDx=0;entryDy=0;entryPerimeter=0;fontSize=20;startArrow=none;startFill=0;endArrow=none;endFill=0;strokeWidth=1;fillColor=#1ba1e2;strokeColor=#006EAF;fontColor=#000000;" parent="1" source="145" target="186" edge="1">
                    <mxGeometry relative="1" as="geometry"/>
                </mxCell>
                <mxCell id="145" value="" style="pointerEvents=1;verticalLabelPosition=bottom;shadow=0;dashed=0;align=center;html=1;verticalAlign=top;shape=mxgraph.electrical.signal_sources.source;aspect=fixed;points=[[0.5,0,0],[1,0.5,0],[0.5,1,0],[0,0.5,0]];elSignalType=dc2;strokeColor=#006EAF;strokeWidth=1;fillColor=#1ba1e2;fontColor=#000000;fontSize=20;" parent="1" vertex="1">
                    <mxGeometry x="407.74" y="654.5" width="40" height="40" as="geometry"/>
                </mxCell>
                <mxCell id="146" style="edgeStyle=none;curved=1;html=1;startArrow=none;startFill=0;endArrow=classic;endFill=1;strokeWidth=3;fillColor=#e51400;strokeColor=#FF0000;fontColor=#000000;fontSize=20;" parent="1" source="148" edge="1">
                    <mxGeometry relative="1" as="geometry">
                        <mxPoint x="1306.37" y="667.0000000000002" as="targetPoint"/>
                        <Array as="points"/>
                    </mxGeometry>
                </mxCell>
                <mxCell id="148" value="&lt;font style=&quot;font-size: 16px;&quot;&gt;Laser Neuron&lt;/font&gt;" style="rounded=0;whiteSpace=wrap;html=1;strokeColor=#000000;strokeWidth=1;fillColor=#CCCCCC;fontColor=#000000;fontSize=16;" parent="1" vertex="1">
                    <mxGeometry x="1121.37" y="647" width="80" height="40" as="geometry"/>
                </mxCell>
                <mxCell id="149" value="" style="endArrow=oval;html=1;strokeWidth=1;curved=1;entryX=1.016;entryY=1.663;entryDx=0;entryDy=0;entryPerimeter=0;fillColor=#1ba1e2;strokeColor=#006EAF;startArrow=oval;startFill=1;endFill=1;fontColor=#000000;exitX=0.953;exitY=0.504;exitDx=0;exitDy=0;exitPerimeter=0;fontSize=20;" parent="1" source="125" target="167" edge="1">
                    <mxGeometry width="50" height="50" relative="1" as="geometry">
                        <mxPoint x="315" y="787.9999999999998" as="sourcePoint"/>
                        <mxPoint x="427.66666666666697" y="788.3" as="targetPoint"/>
                    </mxGeometry>
                </mxCell>
                <mxCell id="150" value="&lt;font style=&quot;font-size: 20px;&quot;&gt;WDM Input&lt;/font&gt;" style="text;html=1;align=center;verticalAlign=middle;resizable=0;points=[];autosize=1;strokeColor=none;fillColor=none;fontColor=#000000;fontSize=20;" parent="1" vertex="1">
                    <mxGeometry x="12.75" y="736" width="110" height="28" as="geometry"/>
                </mxCell>
                <mxCell id="151" value="&lt;font style=&quot;font-size: 20px;&quot;&gt;Excitatory&lt;/font&gt;" style="text;html=1;align=center;verticalAlign=middle;resizable=0;points=[];autosize=1;strokeColor=none;fillColor=none;fontColor=#000000;fontSize=20;" parent="1" vertex="1">
                    <mxGeometry x="161.75" y="709" width="98" height="28" as="geometry"/>
                </mxCell>
                <mxCell id="152" value="&lt;font style=&quot;font-size: 20px;&quot;&gt;Inhibitory&lt;/font&gt;" style="text;html=1;align=center;verticalAlign=middle;resizable=0;points=[];autosize=1;strokeColor=none;fillColor=none;fontColor=#000000;fontSize=20;" parent="1" vertex="1">
                    <mxGeometry x="176.63" y="884" width="91" height="28" as="geometry"/>
                </mxCell>
                <mxCell id="153" value="&lt;font style=&quot;font-size: 20px;&quot;&gt;Pumping Current&lt;/font&gt;" style="text;html=1;strokeColor=none;fillColor=none;align=center;verticalAlign=middle;whiteSpace=wrap;rounded=0;fontColor=#000000;fontSize=20;" parent="1" vertex="1">
                    <mxGeometry x="399.74" y="615.5" width="60" height="30" as="geometry"/>
                </mxCell>
                <mxCell id="154" value="" style="endArrow=none;html=1;strokeWidth=3;curved=1;fontColor=#000000;strokeColor=#000000;fontSize=20;" parent="1" edge="1">
                    <mxGeometry width="50" height="50" relative="1" as="geometry">
                        <mxPoint x="552" y="573.0000000000002" as="sourcePoint"/>
                        <mxPoint x="597.5" y="573.0000000000002" as="targetPoint"/>
                    </mxGeometry>
                </mxCell>
                <mxCell id="155" value="" style="endArrow=none;html=1;strokeWidth=1;curved=1;fillColor=#1ba1e2;strokeColor=#006EAF;fontColor=#000000;fontSize=20;" parent="1" edge="1">
                    <mxGeometry width="50" height="50" relative="1" as="geometry">
                        <mxPoint x="552" y="633.0000000000002" as="sourcePoint"/>
                        <mxPoint x="597.5" y="633.0000000000002" as="targetPoint"/>
                    </mxGeometry>
                </mxCell>
                <mxCell id="156" value="" style="endArrow=none;html=1;strokeWidth=3;curved=1;fillColor=#e51400;strokeColor=#B20000;fontColor=#000000;fontSize=20;" parent="1" edge="1">
                    <mxGeometry width="50" height="50" relative="1" as="geometry">
                        <mxPoint x="552" y="603.0000000000002" as="sourcePoint"/>
                        <mxPoint x="597.5" y="603.0000000000002" as="targetPoint"/>
                    </mxGeometry>
                </mxCell>
                <mxCell id="157" value="&lt;font style=&quot;font-size: 20px;&quot;&gt;WDM Light&lt;/font&gt;" style="text;html=1;strokeColor=none;fillColor=none;align=center;verticalAlign=middle;whiteSpace=wrap;rounded=0;fontColor=#000000;fontSize=20;" parent="1" vertex="1">
                    <mxGeometry x="597.74" y="556" width="118.26" height="30" as="geometry"/>
                </mxCell>
                <mxCell id="158" value="&lt;font style=&quot;font-size: 20px;&quot;&gt;Single Wavelength Light&lt;/font&gt;" style="text;html=1;align=center;verticalAlign=middle;resizable=0;points=[];autosize=1;strokeColor=none;fillColor=none;fontColor=#000000;fontSize=20;" parent="1" vertex="1">
                    <mxGeometry x="597.74" y="589" width="225" height="28" as="geometry"/>
                </mxCell>
                <mxCell id="159" value="&lt;font style=&quot;font-size: 20px;&quot;&gt;Electrical Connection&lt;/font&gt;" style="text;html=1;align=center;verticalAlign=middle;resizable=0;points=[];autosize=1;strokeColor=none;fillColor=none;fontColor=#000000;fontSize=20;" parent="1" vertex="1">
                    <mxGeometry x="597.74" y="623" width="198" height="28" as="geometry"/>
                </mxCell>
                <mxCell id="161" style="edgeStyle=none;html=1;startArrow=classic;startFill=1;endArrow=none;endFill=0;strokeWidth=3;fontColor=#000000;strokeColor=#000000;fontSize=20;" parent="1" edge="1">
                    <mxGeometry relative="1" as="geometry">
                        <mxPoint x="122.75" y="833" as="targetPoint"/>
                        <mxPoint x="263.6350000000002" y="833.0032166310675" as="sourcePoint"/>
                    </mxGeometry>
                </mxCell>
                <mxCell id="190" style="edgeStyle=orthogonalEdgeStyle;html=1;exitX=1;exitY=0.5;exitDx=0;exitDy=0;exitPerimeter=0;fontSize=20;fontColor=#000000;endArrow=oval;endFill=1;strokeColor=#006EAF;strokeWidth=1;" parent="1" source="162" edge="1">
                    <mxGeometry relative="1" as="geometry">
                        <mxPoint x="559" y="794" as="targetPoint"/>
                    </mxGeometry>
                </mxCell>
                <mxCell id="162" value="" style="pointerEvents=1;verticalLabelPosition=bottom;shadow=0;dashed=0;align=center;html=1;verticalAlign=top;shape=mxgraph.electrical.capacitors.capacitor_1;fontSize=20;fontColor=#000000;strokeColor=#006EAF;fillColor=#1BA1E2;rotation=-90;" parent="1" vertex="1">
                    <mxGeometry x="520" y="833" width="77.74" height="40" as="geometry"/>
                </mxCell>
                <mxCell id="193" style="edgeStyle=orthogonalEdgeStyle;html=1;exitX=0.5;exitY=0;exitDx=0;exitDy=0;exitPerimeter=0;entryX=0;entryY=0.5;entryDx=0;entryDy=0;entryPerimeter=0;fontSize=20;fontColor=#000000;endArrow=none;endFill=0;strokeColor=#006EAF;strokeWidth=1;" parent="1" source="163" target="162" edge="1">
                    <mxGeometry relative="1" as="geometry"/>
                </mxCell>
                <mxCell id="163" value="" style="pointerEvents=1;verticalLabelPosition=bottom;shadow=0;dashed=0;align=center;html=1;verticalAlign=top;shape=mxgraph.electrical.signal_sources.protective_earth;strokeColor=#006EAF;strokeWidth=1;fillColor=#1ba1e2;fontColor=#000000;fontSize=20;" parent="1" vertex="1">
                    <mxGeometry x="546.37" y="907" width="25" height="20" as="geometry"/>
                </mxCell>
                <mxCell id="187" style="edgeStyle=orthogonalEdgeStyle;html=1;exitX=1;exitY=0;exitDx=0;exitDy=0;exitPerimeter=0;entryX=0.052;entryY=5.22;entryDx=0;entryDy=0;entryPerimeter=0;fontSize=20;fontColor=#000000;endArrow=none;endFill=0;strokeColor=#006EAF;strokeWidth=1;" parent="1" source="166" target="186" edge="1">
                    <mxGeometry relative="1" as="geometry"/>
                </mxCell>
                <mxCell id="188" style="edgeStyle=orthogonalEdgeStyle;html=1;exitX=1;exitY=1;exitDx=0;exitDy=0;exitPerimeter=0;entryX=0.5;entryY=0;entryDx=0;entryDy=0;entryPerimeter=0;fontSize=20;fontColor=#000000;endArrow=none;endFill=0;strokeColor=#006EAF;strokeWidth=1;" parent="1" source="166" target="169" edge="1">
                    <mxGeometry relative="1" as="geometry"/>
                </mxCell>
                <mxCell id="166" value="" style="verticalLabelPosition=bottom;shadow=0;dashed=0;align=center;html=1;verticalAlign=top;shape=mxgraph.electrical.transistors.nmos;pointerEvents=1;fontSize=20;fontColor=#000000;strokeColor=#006EAF;fillColor=#1BA1E2;" parent="1" vertex="1">
                    <mxGeometry x="384.62" y="761" width="42.26" height="180" as="geometry"/>
                </mxCell>
                <mxCell id="167" value="" style="verticalLabelPosition=bottom;shadow=0;dashed=0;align=center;html=1;verticalAlign=top;shape=mxgraph.electrical.transistors.nmos;pointerEvents=1;fontSize=20;fontColor=#000000;strokeColor=#006EAF;fillColor=#1BA1E2;rotation=90;" parent="1" vertex="1">
                    <mxGeometry x="480" y="684" width="40" height="180" as="geometry"/>
                </mxCell>
                <mxCell id="192" style="edgeStyle=orthogonalEdgeStyle;html=1;exitX=1;exitY=1;exitDx=0;exitDy=0;exitPerimeter=0;entryX=0.5;entryY=0;entryDx=0;entryDy=0;entryPerimeter=0;fontSize=20;fontColor=#000000;endArrow=none;endFill=0;strokeColor=#006EAF;strokeWidth=1;" parent="1" source="168" target="170" edge="1">
                    <mxGeometry relative="1" as="geometry"/>
                </mxCell>
                <mxCell id="168" value="" style="verticalLabelPosition=bottom;shadow=0;dashed=0;align=center;html=1;verticalAlign=top;shape=mxgraph.electrical.transistors.nmos;pointerEvents=1;fontSize=20;fontColor=#000000;strokeColor=#006EAF;fillColor=#1BA1E2;" parent="1" vertex="1">
                    <mxGeometry x="631.37" y="765.5" width="42.26" height="180" as="geometry"/>
                </mxCell>
                <mxCell id="169" value="" style="pointerEvents=1;verticalLabelPosition=bottom;shadow=0;dashed=0;align=center;html=1;verticalAlign=top;shape=mxgraph.electrical.signal_sources.protective_earth;strokeColor=#006EAF;strokeWidth=1;fillColor=#1ba1e2;fontColor=#000000;fontSize=20;" parent="1" vertex="1">
                    <mxGeometry x="415.24" y="904.5" width="25" height="20" as="geometry"/>
                </mxCell>
                <mxCell id="170" value="" style="pointerEvents=1;verticalLabelPosition=bottom;shadow=0;dashed=0;align=center;html=1;verticalAlign=top;shape=mxgraph.electrical.signal_sources.protective_earth;strokeColor=#006EAF;strokeWidth=1;fillColor=#1ba1e2;fontColor=#000000;fontSize=20;" parent="1" vertex="1">
                    <mxGeometry x="661.37" y="909.75" width="25" height="20" as="geometry"/>
                </mxCell>
                <mxCell id="179" style="edgeStyle=orthogonalEdgeStyle;html=1;exitX=1;exitY=0.5;exitDx=0;exitDy=0;exitPerimeter=0;entryX=0.538;entryY=0.803;entryDx=0;entryDy=0;entryPerimeter=0;fontSize=20;fontColor=#000000;endArrow=oval;endFill=1;strokeColor=#006EAF;strokeWidth=1;" parent="1" source="171" target="178" edge="1">
                    <mxGeometry relative="1" as="geometry"/>
                </mxCell>
                <mxCell id="180" style="edgeStyle=orthogonalEdgeStyle;html=1;exitX=0;exitY=0.5;exitDx=0;exitDy=0;exitPerimeter=0;entryX=0.5;entryY=0;entryDx=0;entryDy=0;entryPerimeter=0;fontSize=20;fontColor=#000000;endArrow=none;endFill=0;strokeColor=#006EAF;strokeWidth=1;" parent="1" source="171" target="172" edge="1">
                    <mxGeometry relative="1" as="geometry"/>
                </mxCell>
                <mxCell id="171" value="" style="pointerEvents=1;verticalLabelPosition=bottom;shadow=0;dashed=0;align=center;html=1;verticalAlign=top;shape=mxgraph.electrical.capacitors.capacitor_1;fontSize=20;fontColor=#000000;strokeColor=#006EAF;fillColor=#1BA1E2;rotation=-90;" parent="1" vertex="1">
                    <mxGeometry x="951.37" y="809.75" width="77.74" height="40" as="geometry"/>
                </mxCell>
                <mxCell id="172" value="" style="pointerEvents=1;verticalLabelPosition=bottom;shadow=0;dashed=0;align=center;html=1;verticalAlign=top;shape=mxgraph.electrical.signal_sources.protective_earth;strokeColor=#006EAF;strokeWidth=1;fillColor=#1ba1e2;fontColor=#000000;fontSize=20;" parent="1" vertex="1">
                    <mxGeometry x="977.74" y="902.25" width="25" height="20" as="geometry"/>
                </mxCell>
                <mxCell id="178" style="edgeStyle=orthogonalEdgeStyle;html=1;exitX=1;exitY=0;exitDx=0;exitDy=0;exitPerimeter=0;entryX=0;entryY=0.835;entryDx=0;entryDy=0;entryPerimeter=0;fontSize=20;fontColor=#000000;endArrow=none;endFill=0;strokeColor=#006EAF;strokeWidth=1;" parent="1" source="173" target="175" edge="1">
                    <mxGeometry relative="1" as="geometry">
                        <Array as="points">
                            <mxPoint x="945.37" y="772.5"/>
                            <mxPoint x="987.37" y="772.5"/>
                        </Array>
                    </mxGeometry>
                </mxCell>
                <mxCell id="181" style="edgeStyle=orthogonalEdgeStyle;html=1;exitX=1;exitY=1;exitDx=0;exitDy=0;exitPerimeter=0;entryX=1;entryY=0.5;entryDx=0;entryDy=0;entryPerimeter=0;fontSize=20;fontColor=#000000;endArrow=none;endFill=0;strokeColor=#006EAF;strokeWidth=1;" parent="1" source="173" target="124" edge="1">
                    <mxGeometry relative="1" as="geometry">
                        <Array as="points">
                            <mxPoint x="861.37" y="771.5"/>
                            <mxPoint x="861.37" y="771.5"/>
                        </Array>
                    </mxGeometry>
                </mxCell>
                <mxCell id="173" value="" style="verticalLabelPosition=bottom;shadow=0;dashed=0;align=center;html=1;verticalAlign=top;shape=mxgraph.electrical.transistors.nmos;pointerEvents=1;fontSize=20;fontColor=#000000;strokeColor=#006EAF;fillColor=#1BA1E2;rotation=90;" parent="1" vertex="1">
                    <mxGeometry x="891.37" y="660.55" width="42.26" height="180" as="geometry"/>
                </mxCell>
                <mxCell id="177" style="html=1;exitX=1;exitY=1;exitDx=0;exitDy=0;exitPerimeter=0;entryX=1;entryY=0.5;entryDx=0;entryDy=0;entryPerimeter=0;fontSize=20;fontColor=#000000;strokeColor=#006EAF;strokeWidth=1;endArrow=none;endFill=0;" parent="1" source="174" target="176" edge="1">
                    <mxGeometry relative="1" as="geometry"/>
                </mxCell>
                <mxCell id="196" style="edgeStyle=orthogonalEdgeStyle;html=1;exitX=1;exitY=0;exitDx=0;exitDy=0;exitPerimeter=0;entryX=0.5;entryY=1;entryDx=0;entryDy=0;fontSize=20;fontColor=#000000;endArrow=none;endFill=0;strokeColor=#006EAF;strokeWidth=1;" parent="1" source="174" target="148" edge="1">
                    <mxGeometry relative="1" as="geometry"/>
                </mxCell>
                <mxCell id="174" value="" style="verticalLabelPosition=bottom;shadow=0;dashed=0;align=center;html=1;verticalAlign=top;shape=mxgraph.electrical.transistors.nmos;pointerEvents=1;fontSize=20;fontColor=#000000;strokeColor=#006EAF;fillColor=#1BA1E2;" parent="1" vertex="1">
                    <mxGeometry x="1121.37" y="696" width="40" height="105.5" as="geometry"/>
                </mxCell>
                <mxCell id="182" style="edgeStyle=orthogonalEdgeStyle;html=1;exitX=0;exitY=0.165;exitDx=0;exitDy=0;exitPerimeter=0;entryX=-2.827;entryY=0.712;entryDx=0;entryDy=0;entryPerimeter=0;fontSize=20;fontColor=#000000;endArrow=oval;endFill=1;strokeColor=#006EAF;strokeWidth=1;" parent="1" source="175" target="177" edge="1">
                    <mxGeometry relative="1" as="geometry"/>
                </mxCell>
                <mxCell id="175" value="" style="verticalLabelPosition=bottom;shadow=0;dashed=0;align=center;html=1;verticalAlign=top;shape=mxgraph.electrical.abstract.operational_amp_1;fontSize=20;fontColor=#000000;fillColor=#1BA1E2;strokeColor=#006EAF;" parent="1" vertex="1">
                    <mxGeometry x="1029.11" y="713.75" width="80" height="70" as="geometry"/>
                </mxCell>
                <mxCell id="176" value="" style="pointerEvents=1;verticalLabelPosition=bottom;shadow=0;dashed=0;align=center;html=1;verticalAlign=top;shape=mxgraph.electrical.resistors.resistor_2;fontSize=20;fontColor=#000000;strokeColor=#006EAF;fillColor=#1BA1E2;rotation=-90;" parent="1" vertex="1">
                    <mxGeometry x="1124.12" y="851" width="74.38" height="17" as="geometry"/>
                </mxCell>
                <mxCell id="183" style="edgeStyle=orthogonalEdgeStyle;html=1;exitX=1;exitY=0.5;exitDx=0;exitDy=0;exitPerimeter=0;entryX=0;entryY=0.5;entryDx=0;entryDy=0;entryPerimeter=0;fontSize=20;fontColor=#000000;endArrow=none;endFill=0;strokeColor=#006EAF;strokeWidth=1;" parent="1" source="175" target="174" edge="1">
                    <mxGeometry relative="1" as="geometry"/>
                </mxCell>
                <mxCell id="186" style="edgeStyle=orthogonalEdgeStyle;html=1;exitX=1;exitY=1;exitDx=0;exitDy=0;exitPerimeter=0;entryX=0.995;entryY=1.693;entryDx=0;entryDy=0;entryPerimeter=0;fontSize=20;fontColor=#000000;endArrow=none;endFill=0;strokeColor=#006EAF;strokeWidth=1;" parent="1" source="167" target="167" edge="1">
                    <mxGeometry relative="1" as="geometry"/>
                </mxCell>
                <mxCell id="191" style="edgeStyle=orthogonalEdgeStyle;html=1;exitX=1;exitY=0;exitDx=0;exitDy=0;exitPerimeter=0;entryX=1.002;entryY=-0.409;entryDx=0;entryDy=0;entryPerimeter=0;fontSize=20;fontColor=#000000;endArrow=oval;endFill=1;strokeColor=#006EAF;strokeWidth=1;" parent="1" source="168" target="168" edge="1">
                    <mxGeometry relative="1" as="geometry"/>
                </mxCell>
                <mxCell id="195" style="edgeStyle=orthogonalEdgeStyle;html=1;exitX=0.5;exitY=0;exitDx=0;exitDy=0;exitPerimeter=0;entryX=0;entryY=0.5;entryDx=0;entryDy=0;entryPerimeter=0;fontSize=20;fontColor=#000000;endArrow=none;endFill=0;strokeColor=#006EAF;strokeWidth=1;" parent="1" source="194" target="176" edge="1">
                    <mxGeometry relative="1" as="geometry"/>
                </mxCell>
                <mxCell id="194" value="" style="pointerEvents=1;verticalLabelPosition=bottom;shadow=0;dashed=0;align=center;html=1;verticalAlign=top;shape=mxgraph.electrical.signal_sources.protective_earth;strokeColor=#006EAF;strokeWidth=1;fillColor=#1ba1e2;fontColor=#000000;fontSize=20;" parent="1" vertex="1">
                    <mxGeometry x="1148.8099999999997" y="902.25" width="25" height="20" as="geometry"/>
                </mxCell>
                <mxCell id="199" style="edgeStyle=orthogonalEdgeStyle;html=1;exitX=0.5;exitY=0;exitDx=0;exitDy=0;exitPerimeter=0;entryX=0.5;entryY=0;entryDx=0;entryDy=0;fontSize=20;fontColor=#000000;endArrow=none;endFill=0;strokeColor=#006EAF;strokeWidth=1;" parent="1" source="198" target="148" edge="1">
                    <mxGeometry relative="1" as="geometry"/>
                </mxCell>
                <mxCell id="198" value="V&lt;sub style=&quot;font-size: 20px;&quot;&gt;dd&lt;/sub&gt;" style="verticalLabelPosition=top;verticalAlign=bottom;shape=mxgraph.electrical.signal_sources.vdd;shadow=0;dashed=0;align=center;strokeWidth=1;fontSize=20;html=1;flipV=1;fillColor=#1ba1e2;fontColor=#000000;strokeColor=#006EAF;" parent="1" vertex="1">
                    <mxGeometry x="1131.31" y="577" width="60" height="40" as="geometry"/>
                </mxCell>
                <mxCell id="201" value="&lt;font style=&quot;font-size: 20px;&quot;&gt;Sample&lt;/font&gt;" style="text;html=1;strokeColor=none;fillColor=none;align=center;verticalAlign=middle;whiteSpace=wrap;rounded=0;fontSize=20;fontColor=#000000;" parent="1" vertex="1">
                    <mxGeometry x="470" y="719" width="60" height="30" as="geometry"/>
                </mxCell>
                <mxCell id="202" value="&lt;font style=&quot;font-size: 20px;&quot;&gt;~Sample&lt;/font&gt;" style="text;html=1;strokeColor=none;fillColor=none;align=center;verticalAlign=middle;whiteSpace=wrap;rounded=0;fontSize=20;fontColor=#000000;" parent="1" vertex="1">
                    <mxGeometry x="320" y="836" width="60" height="30" as="geometry"/>
                </mxCell>
                <mxCell id="203" value="Drain" style="text;html=1;strokeColor=none;fillColor=none;align=center;verticalAlign=middle;whiteSpace=wrap;rounded=0;fontSize=20;fontColor=#000000;" parent="1" vertex="1">
                    <mxGeometry x="585.19" y="840.5" width="48.63" height="30" as="geometry"/>
                </mxCell>
                <mxCell id="204" value="Latch" style="text;html=1;strokeColor=none;fillColor=none;align=center;verticalAlign=middle;whiteSpace=wrap;rounded=0;fontSize=20;fontColor=#000000;" parent="1" vertex="1">
                    <mxGeometry x="882.5" y="696" width="60" height="30" as="geometry"/>
                </mxCell>
                <mxCell id="205" value="" style="ellipse;whiteSpace=wrap;html=1;aspect=fixed;strokeColor=#FF0000;strokeWidth=3;fontColor=#000000;fillColor=#FFFFFF;fontSize=20;" parent="1" vertex="1">
                    <mxGeometry x="188.25" y="749" width="42" height="42" as="geometry"/>
                </mxCell>
                <mxCell id="206" value="" style="ellipse;whiteSpace=wrap;html=1;aspect=fixed;strokeColor=#FF0000;strokeWidth=3;fontColor=#000000;fillColor=#FFFFFF;fontSize=20;" parent="1" vertex="1">
                    <mxGeometry x="188.25" y="791" width="42" height="42" as="geometry"/>
                </mxCell>
                <mxCell id="207" value="1 Ohm" style="text;html=1;strokeColor=none;fillColor=none;align=center;verticalAlign=middle;whiteSpace=wrap;rounded=0;fontSize=20;fontColor=#000000;" parent="1" vertex="1">
                    <mxGeometry x="1173.81" y="844.5" width="60" height="30" as="geometry"/>
                </mxCell>
                <mxCell id="208" value="C&lt;sub style=&quot;font-size: 20px;&quot;&gt;S&lt;/sub&gt;" style="text;html=1;strokeColor=none;fillColor=none;align=center;verticalAlign=middle;whiteSpace=wrap;rounded=0;fontSize=20;fontColor=#000000;" parent="1" vertex="1">
                    <mxGeometry x="472" y="838" width="60" height="30" as="geometry"/>
                </mxCell>
                <mxCell id="209" value="C&lt;sub&gt;L&lt;/sub&gt;" style="text;html=1;strokeColor=none;fillColor=none;align=center;verticalAlign=middle;whiteSpace=wrap;rounded=0;fontSize=20;fontColor=#000000;" parent="1" vertex="1">
                    <mxGeometry x="908" y="817" width="60" height="30" as="geometry"/>
                </mxCell>
                <mxCell id="212" style="edgeStyle=orthogonalEdgeStyle;html=1;fontSize=20;fontColor=#000000;endArrow=none;endFill=0;strokeColor=#000000;strokeWidth=3;fillColor=#f5f5f5;" parent="1" edge="1">
                    <mxGeometry relative="1" as="geometry">
                        <mxPoint x="90" y="503" as="targetPoint"/>
                        <mxPoint x="-1240" y="503" as="sourcePoint"/>
                        <Array as="points">
                            <mxPoint x="-819" y="502.5"/>
                            <mxPoint x="-819" y="484.5"/>
                            <mxPoint x="-844" y="484.5"/>
                            <mxPoint x="-844" y="465.5"/>
                            <mxPoint x="-819" y="465.5"/>
                            <mxPoint x="-819" y="449.5"/>
                            <mxPoint x="-862" y="449.5"/>
                            <mxPoint x="-862" y="465.5"/>
                            <mxPoint x="-910" y="465.5"/>
                            <mxPoint x="-910" y="449.5"/>
                            <mxPoint x="-871" y="449.5"/>
                            <mxPoint x="-871" y="435.5"/>
                            <mxPoint x="-945" y="435.5"/>
                            <mxPoint x="-945" y="416.5"/>
                            <mxPoint x="-927" y="416.5"/>
                            <mxPoint x="-927" y="393.5"/>
                            <mxPoint x="-898" y="393.5"/>
                            <mxPoint x="-898" y="372.5"/>
                            <mxPoint x="-877" y="372.5"/>
                            <mxPoint x="-877" y="405.5"/>
                            <mxPoint x="-910" y="405.5"/>
                            <mxPoint x="-910" y="422.5"/>
                            <mxPoint x="-862" y="422.5"/>
                            <mxPoint x="-862" y="405.5"/>
                            <mxPoint x="-844" y="405.5"/>
                            <mxPoint x="-844" y="386.5"/>
                            <mxPoint x="-862" y="386.5"/>
                            <mxPoint x="-862" y="365.5"/>
                            <mxPoint x="-819" y="365.5"/>
                            <mxPoint x="-819" y="416.5"/>
                            <mxPoint x="-844" y="416.5"/>
                            <mxPoint x="-844" y="435.5"/>
                            <mxPoint x="-805" y="435.5"/>
                            <mxPoint x="-805" y="381.5"/>
                            <mxPoint x="-785" y="381.5"/>
                            <mxPoint x="-785" y="393.5"/>
                            <mxPoint x="-768" y="393.5"/>
                            <mxPoint x="-768" y="411.5"/>
                            <mxPoint x="-785" y="411.5"/>
                            <mxPoint x="-785" y="428.5"/>
                            <mxPoint x="-768" y="428.5"/>
                            <mxPoint x="-768" y="441.5"/>
                            <mxPoint x="-791" y="441.5"/>
                            <mxPoint x="-791" y="457.5"/>
                            <mxPoint x="-805" y="457.5"/>
                        </Array>
                    </mxGeometry>
                </mxCell>
                <mxCell id="213" style="edgeStyle=orthogonalEdgeStyle;html=1;exitX=0;exitY=0.835;exitDx=0;exitDy=0;exitPerimeter=0;entryX=1;entryY=0;entryDx=0;entryDy=0;entryPerimeter=0;fontSize=20;fontColor=#000000;endArrow=none;endFill=0;strokeColor=#006EAF;strokeWidth=1;" parent="1" source="215" target="250" edge="1">
                    <mxGeometry relative="1" as="geometry">
                        <Array as="points">
                            <mxPoint x="598.25" y="1460"/>
                        </Array>
                    </mxGeometry>
                </mxCell>
                <mxCell id="214" style="edgeStyle=orthogonalEdgeStyle;html=1;exitX=0;exitY=0.165;exitDx=0;exitDy=0;exitPerimeter=0;entryX=0.489;entryY=1.575;entryDx=0;entryDy=0;entryPerimeter=0;fontSize=20;fontColor=#000000;endArrow=oval;endFill=1;strokeColor=#006EAF;strokeWidth=1;" parent="1" source="215" target="260" edge="1">
                    <mxGeometry relative="1" as="geometry">
                        <Array as="points">
                            <mxPoint x="673.25" y="1414"/>
                            <mxPoint x="673.25" y="1393"/>
                            <mxPoint x="792.25" y="1393"/>
                            <mxPoint x="792.25" y="1436"/>
                            <mxPoint x="791.25" y="1436"/>
                            <mxPoint x="791.25" y="1441"/>
                            <mxPoint x="792.25" y="1441"/>
                        </Array>
                    </mxGeometry>
                </mxCell>
                <mxCell id="215" value="" style="verticalLabelPosition=bottom;shadow=0;dashed=0;align=center;html=1;verticalAlign=top;shape=mxgraph.electrical.abstract.operational_amp_1;fontSize=20;fontColor=#000000;fillColor=#1BA1E2;strokeColor=#006EAF;" parent="1" vertex="1">
                    <mxGeometry x="683.62" y="1402.5" width="80" height="70" as="geometry"/>
                </mxCell>
                <mxCell id="217" style="edgeStyle=none;html=1;startArrow=classic;startFill=1;endArrow=none;endFill=0;strokeWidth=3;fontColor=#000000;strokeColor=#FF0000;fontSize=20;" parent="1" source="219" edge="1">
                    <mxGeometry relative="1" as="geometry">
                        <mxPoint x="65" y="1413" as="targetPoint"/>
                    </mxGeometry>
                </mxCell>
                <mxCell id="218" style="edgeStyle=none;curved=1;html=1;exitX=0;exitY=0.5;exitDx=0;exitDy=0;exitPerimeter=0;entryX=1;entryY=0.5;entryDx=0;entryDy=0;entryPerimeter=0;startArrow=none;startFill=0;endArrow=none;endFill=0;strokeWidth=1;fillColor=#1ba1e2;strokeColor=#006EAF;fontColor=#000000;fontSize=20;" parent="1" source="219" edge="1">
                    <mxGeometry relative="1" as="geometry">
                        <mxPoint x="221.6199999999999" y="1458" as="targetPoint"/>
                    </mxGeometry>
                </mxCell>
                <mxCell id="219" value="" style="pointerEvents=1;fillColor=#1BA1E2;verticalLabelPosition=bottom;shadow=0;dashed=0;align=center;html=1;verticalAlign=top;shape=mxgraph.electrical.diodes.diode;rotation=-90;fontColor=#000000;strokeColor=#006EAF;fontSize=20;" parent="1" vertex="1">
                    <mxGeometry x="181" y="1395" width="81.25" height="35" as="geometry"/>
                </mxCell>
                <mxCell id="223" style="edgeStyle=none;curved=1;html=1;exitX=0.5;exitY=0;exitDx=0;exitDy=0;exitPerimeter=0;entryX=1;entryY=0.5;entryDx=0;entryDy=0;entryPerimeter=0;startArrow=none;startFill=0;endArrow=none;endFill=0;strokeWidth=1;fillColor=#1ba1e2;strokeColor=#006EAF;fontColor=#000000;fontSize=20;" parent="1" source="224" target="219" edge="1">
                    <mxGeometry relative="1" as="geometry"/>
                </mxCell>
                <mxCell id="224" value="V&lt;sub style=&quot;font-size: 20px;&quot;&gt;dd&lt;/sub&gt;" style="verticalLabelPosition=top;verticalAlign=bottom;shape=mxgraph.electrical.signal_sources.vdd;shadow=0;dashed=0;align=center;strokeWidth=1;fontSize=20;html=1;flipV=1;fillColor=#1ba1e2;fontColor=#000000;strokeColor=#006EAF;" parent="1" vertex="1">
                    <mxGeometry x="191.62" y="1329" width="60" height="40" as="geometry"/>
                </mxCell>
                <mxCell id="229" style="edgeStyle=none;curved=1;html=1;startArrow=none;startFill=0;endArrow=classic;endFill=1;strokeWidth=3;fillColor=#e51400;strokeColor=#FF0000;fontColor=#000000;fontSize=20;" parent="1" source="230" edge="1">
                    <mxGeometry relative="1" as="geometry">
                        <mxPoint x="1248.62" y="1333" as="targetPoint"/>
                        <Array as="points"/>
                    </mxGeometry>
                </mxCell>
                <mxCell id="230" value="&lt;font style=&quot;font-size: 16px;&quot;&gt;Laser Neuron&lt;/font&gt;" style="rounded=0;whiteSpace=wrap;html=1;strokeColor=#000000;strokeWidth=1;fillColor=#CCCCCC;fontColor=#000000;fontSize=16;" parent="1" vertex="1">
                    <mxGeometry x="1063.62" y="1313" width="80" height="40" as="geometry"/>
                </mxCell>
                <mxCell id="232" value="&lt;font style=&quot;font-size: 20px&quot;&gt;Excitatory Input&lt;/font&gt;" style="text;html=1;align=center;verticalAlign=middle;resizable=0;points=[];autosize=1;strokeColor=none;fillColor=none;fontColor=#000000;fontSize=20;" parent="1" vertex="1">
                    <mxGeometry x="47.629999999999995" y="1374.5" width="148" height="28" as="geometry"/>
                </mxCell>
                <mxCell id="236" value="" style="endArrow=none;html=1;strokeWidth=3;curved=1;fontColor=#000000;strokeColor=#FF0000;fontSize=20;" parent="1" edge="1">
                    <mxGeometry width="50" height="50" relative="1" as="geometry">
                        <mxPoint x="494.25" y="1260.0000000000002" as="sourcePoint"/>
                        <mxPoint x="539.75" y="1260.0000000000002" as="targetPoint"/>
                    </mxGeometry>
                </mxCell>
                <mxCell id="237" value="" style="endArrow=none;html=1;strokeWidth=1;curved=1;fillColor=#1ba1e2;strokeColor=#006EAF;fontColor=#000000;fontSize=20;" parent="1" edge="1">
                    <mxGeometry width="50" height="50" relative="1" as="geometry">
                        <mxPoint x="494.25" y="1299" as="sourcePoint"/>
                        <mxPoint x="539.75" y="1299" as="targetPoint"/>
                    </mxGeometry>
                </mxCell>
                <mxCell id="239" value="Waveguide" style="text;html=1;strokeColor=none;fillColor=none;align=center;verticalAlign=middle;whiteSpace=wrap;rounded=0;fontColor=#000000;fontSize=20;" parent="1" vertex="1">
                    <mxGeometry x="539.99" y="1243" width="118.26" height="30" as="geometry"/>
                </mxCell>
                <mxCell id="241" value="&lt;font style=&quot;font-size: 20px;&quot;&gt;Electrical Connection&lt;/font&gt;" style="text;html=1;align=center;verticalAlign=middle;resizable=0;points=[];autosize=1;strokeColor=none;fillColor=none;fontColor=#000000;fontSize=20;" parent="1" vertex="1">
                    <mxGeometry x="539.99" y="1289" width="198" height="28" as="geometry"/>
                </mxCell>
                <mxCell id="243" style="edgeStyle=orthogonalEdgeStyle;html=1;exitX=1;exitY=0.5;exitDx=0;exitDy=0;exitPerimeter=0;fontSize=20;fontColor=#000000;endArrow=oval;endFill=1;strokeColor=#006EAF;strokeWidth=1;" parent="1" source="244" edge="1">
                    <mxGeometry relative="1" as="geometry">
                        <mxPoint x="501.25" y="1460" as="targetPoint"/>
                    </mxGeometry>
                </mxCell>
                <mxCell id="244" value="" style="pointerEvents=1;verticalLabelPosition=bottom;shadow=0;dashed=0;align=center;html=1;verticalAlign=top;shape=mxgraph.electrical.capacitors.capacitor_1;fontSize=20;fontColor=#000000;strokeColor=#006EAF;fillColor=#1BA1E2;rotation=-90;" parent="1" vertex="1">
                    <mxGeometry x="462.25" y="1499" width="77.74" height="40" as="geometry"/>
                </mxCell>
                <mxCell id="245" style="edgeStyle=orthogonalEdgeStyle;html=1;exitX=0.5;exitY=0;exitDx=0;exitDy=0;exitPerimeter=0;entryX=0;entryY=0.5;entryDx=0;entryDy=0;entryPerimeter=0;fontSize=20;fontColor=#000000;endArrow=none;endFill=0;strokeColor=#006EAF;strokeWidth=1;" parent="1" source="246" target="244" edge="1">
                    <mxGeometry relative="1" as="geometry"/>
                </mxCell>
                <mxCell id="246" value="" style="pointerEvents=1;verticalLabelPosition=bottom;shadow=0;dashed=0;align=center;html=1;verticalAlign=top;shape=mxgraph.electrical.signal_sources.protective_earth;strokeColor=#006EAF;strokeWidth=1;fillColor=#1ba1e2;fontColor=#000000;fontSize=20;" parent="1" vertex="1">
                    <mxGeometry x="488.62" y="1573" width="25" height="20" as="geometry"/>
                </mxCell>
                <mxCell id="247" style="edgeStyle=orthogonalEdgeStyle;html=1;exitX=1;exitY=0;exitDx=0;exitDy=0;exitPerimeter=0;entryX=0.791;entryY=0.899;entryDx=0;entryDy=0;entryPerimeter=0;fontSize=20;fontColor=#000000;endArrow=oval;endFill=1;strokeColor=#006EAF;strokeWidth=1;" parent="1" source="249" target="269" edge="1">
                    <mxGeometry relative="1" as="geometry"/>
                </mxCell>
                <mxCell id="248" style="edgeStyle=orthogonalEdgeStyle;html=1;exitX=1;exitY=1;exitDx=0;exitDy=0;exitPerimeter=0;entryX=0.5;entryY=0;entryDx=0;entryDy=0;entryPerimeter=0;fontSize=20;fontColor=#000000;endArrow=none;endFill=0;strokeColor=#006EAF;strokeWidth=1;" parent="1" source="249" target="253" edge="1">
                    <mxGeometry relative="1" as="geometry"/>
                </mxCell>
                <mxCell id="249" value="" style="verticalLabelPosition=bottom;shadow=0;dashed=0;align=center;html=1;verticalAlign=top;shape=mxgraph.electrical.transistors.nmos;pointerEvents=1;fontSize=20;fontColor=#000000;strokeColor=#006EAF;fillColor=#1BA1E2;" parent="1" vertex="1">
                    <mxGeometry x="329" y="1424" width="42.26" height="180" as="geometry"/>
                </mxCell>
                <mxCell id="250" value="" style="verticalLabelPosition=bottom;shadow=0;dashed=0;align=center;html=1;verticalAlign=top;shape=mxgraph.electrical.transistors.nmos;pointerEvents=1;fontSize=20;fontColor=#000000;strokeColor=#006EAF;fillColor=#1BA1E2;rotation=90;" parent="1" vertex="1">
                    <mxGeometry x="422.25" y="1350" width="40" height="180" as="geometry"/>
                </mxCell>
                <mxCell id="289" style="edgeStyle=orthogonalEdgeStyle;html=1;exitX=1;exitY=1;exitDx=0;exitDy=0;exitPerimeter=0;entryX=0.5;entryY=1;entryDx=0;entryDy=0;entryPerimeter=0;endArrow=none;endFill=0;strokeColor=#006EAF;" parent="1" source="252" target="287" edge="1">
                    <mxGeometry relative="1" as="geometry"/>
                </mxCell>
                <mxCell id="252" value="" style="verticalLabelPosition=bottom;shadow=0;dashed=0;align=center;html=1;verticalAlign=top;shape=mxgraph.electrical.transistors.nmos;pointerEvents=1;fontSize=20;fontColor=#000000;strokeColor=#006EAF;fillColor=#1BA1E2;" parent="1" vertex="1">
                    <mxGeometry x="573.62" y="1431.5" width="42.26" height="180" as="geometry"/>
                </mxCell>
                <mxCell id="253" value="" style="pointerEvents=1;verticalLabelPosition=bottom;shadow=0;dashed=0;align=center;html=1;verticalAlign=top;shape=mxgraph.electrical.signal_sources.protective_earth;strokeColor=#006EAF;strokeWidth=1;fillColor=#1ba1e2;fontColor=#000000;fontSize=20;" parent="1" vertex="1">
                    <mxGeometry x="359.62" y="1566" width="25" height="20" as="geometry"/>
                </mxCell>
                <mxCell id="293" style="edgeStyle=orthogonalEdgeStyle;html=1;exitX=0.5;exitY=0;exitDx=0;exitDy=0;exitPerimeter=0;entryX=1;entryY=0.25;entryDx=0;entryDy=0;entryPerimeter=0;endArrow=none;endFill=0;strokeColor=#006EAF;" parent="1" source="254" target="287" edge="1">
                    <mxGeometry relative="1" as="geometry">
                        <Array as="points">
                            <mxPoint x="573" y="1606"/>
                        </Array>
                    </mxGeometry>
                </mxCell>
                <mxCell id="254" value="" style="pointerEvents=1;verticalLabelPosition=bottom;shadow=0;dashed=0;align=center;html=1;verticalAlign=top;shape=mxgraph.electrical.signal_sources.protective_earth;strokeColor=#006EAF;strokeWidth=1;fillColor=#1ba1e2;fontColor=#000000;fontSize=20;" parent="1" vertex="1">
                    <mxGeometry x="560.19" y="1620" width="25" height="20" as="geometry"/>
                </mxCell>
                <mxCell id="255" style="edgeStyle=orthogonalEdgeStyle;html=1;exitX=1;exitY=0.5;exitDx=0;exitDy=0;exitPerimeter=0;entryX=0.538;entryY=0.803;entryDx=0;entryDy=0;entryPerimeter=0;fontSize=20;fontColor=#000000;endArrow=oval;endFill=1;strokeColor=#006EAF;strokeWidth=1;" parent="1" source="257" target="259" edge="1">
                    <mxGeometry relative="1" as="geometry"/>
                </mxCell>
                <mxCell id="256" style="edgeStyle=orthogonalEdgeStyle;html=1;exitX=0;exitY=0.5;exitDx=0;exitDy=0;exitPerimeter=0;entryX=0.5;entryY=0;entryDx=0;entryDy=0;entryPerimeter=0;fontSize=20;fontColor=#000000;endArrow=none;endFill=0;strokeColor=#006EAF;strokeWidth=1;" parent="1" source="257" target="258" edge="1">
                    <mxGeometry relative="1" as="geometry"/>
                </mxCell>
                <mxCell id="257" value="" style="pointerEvents=1;verticalLabelPosition=bottom;shadow=0;dashed=0;align=center;html=1;verticalAlign=top;shape=mxgraph.electrical.capacitors.capacitor_1;fontSize=20;fontColor=#000000;strokeColor=#006EAF;fillColor=#1BA1E2;rotation=-90;" parent="1" vertex="1">
                    <mxGeometry x="893.62" y="1475.75" width="77.74" height="40" as="geometry"/>
                </mxCell>
                <mxCell id="258" value="" style="pointerEvents=1;verticalLabelPosition=bottom;shadow=0;dashed=0;align=center;html=1;verticalAlign=top;shape=mxgraph.electrical.signal_sources.protective_earth;strokeColor=#006EAF;strokeWidth=1;fillColor=#1ba1e2;fontColor=#000000;fontSize=20;" parent="1" vertex="1">
                    <mxGeometry x="919.99" y="1568.25" width="25" height="20" as="geometry"/>
                </mxCell>
                <mxCell id="259" style="edgeStyle=orthogonalEdgeStyle;html=1;exitX=1;exitY=0;exitDx=0;exitDy=0;exitPerimeter=0;entryX=0;entryY=0.835;entryDx=0;entryDy=0;entryPerimeter=0;fontSize=20;fontColor=#000000;endArrow=none;endFill=0;strokeColor=#006EAF;strokeWidth=1;" parent="1" source="261" target="266" edge="1">
                    <mxGeometry relative="1" as="geometry">
                        <Array as="points">
                            <mxPoint x="887.62" y="1438.5"/>
                            <mxPoint x="929.62" y="1438.5"/>
                        </Array>
                    </mxGeometry>
                </mxCell>
                <mxCell id="260" style="edgeStyle=orthogonalEdgeStyle;html=1;exitX=1;exitY=1;exitDx=0;exitDy=0;exitPerimeter=0;entryX=1;entryY=0.5;entryDx=0;entryDy=0;entryPerimeter=0;fontSize=20;fontColor=#000000;endArrow=none;endFill=0;strokeColor=#006EAF;strokeWidth=1;" parent="1" source="261" target="215" edge="1">
                    <mxGeometry relative="1" as="geometry">
                        <Array as="points">
                            <mxPoint x="803.62" y="1437.5"/>
                            <mxPoint x="803.62" y="1437.5"/>
                        </Array>
                    </mxGeometry>
                </mxCell>
                <mxCell id="261" value="" style="verticalLabelPosition=bottom;shadow=0;dashed=0;align=center;html=1;verticalAlign=top;shape=mxgraph.electrical.transistors.nmos;pointerEvents=1;fontSize=20;fontColor=#000000;strokeColor=#006EAF;fillColor=#1BA1E2;rotation=90;" parent="1" vertex="1">
                    <mxGeometry x="833.62" y="1326.55" width="42.26" height="180" as="geometry"/>
                </mxCell>
                <mxCell id="262" style="html=1;exitX=1;exitY=1;exitDx=0;exitDy=0;exitPerimeter=0;entryX=1;entryY=0.5;entryDx=0;entryDy=0;entryPerimeter=0;fontSize=20;fontColor=#000000;strokeColor=#006EAF;strokeWidth=1;endArrow=none;endFill=0;" parent="1" source="264" target="267" edge="1">
                    <mxGeometry relative="1" as="geometry"/>
                </mxCell>
                <mxCell id="263" style="edgeStyle=orthogonalEdgeStyle;html=1;exitX=1;exitY=0;exitDx=0;exitDy=0;exitPerimeter=0;entryX=0.5;entryY=1;entryDx=0;entryDy=0;fontSize=20;fontColor=#000000;endArrow=none;endFill=0;strokeColor=#006EAF;strokeWidth=1;" parent="1" source="264" target="230" edge="1">
                    <mxGeometry relative="1" as="geometry"/>
                </mxCell>
                <mxCell id="264" value="" style="verticalLabelPosition=bottom;shadow=0;dashed=0;align=center;html=1;verticalAlign=top;shape=mxgraph.electrical.transistors.nmos;pointerEvents=1;fontSize=20;fontColor=#000000;strokeColor=#006EAF;fillColor=#1BA1E2;" parent="1" vertex="1">
                    <mxGeometry x="1063.62" y="1362" width="40" height="105.5" as="geometry"/>
                </mxCell>
                <mxCell id="265" style="edgeStyle=orthogonalEdgeStyle;html=1;exitX=0;exitY=0.165;exitDx=0;exitDy=0;exitPerimeter=0;entryX=-2.827;entryY=0.712;entryDx=0;entryDy=0;entryPerimeter=0;fontSize=20;fontColor=#000000;endArrow=oval;endFill=1;strokeColor=#006EAF;strokeWidth=1;" parent="1" source="266" target="262" edge="1">
                    <mxGeometry relative="1" as="geometry"/>
                </mxCell>
                <mxCell id="266" value="" style="verticalLabelPosition=bottom;shadow=0;dashed=0;align=center;html=1;verticalAlign=top;shape=mxgraph.electrical.abstract.operational_amp_1;fontSize=20;fontColor=#000000;fillColor=#1BA1E2;strokeColor=#006EAF;" parent="1" vertex="1">
                    <mxGeometry x="971.3599999999999" y="1379.75" width="80" height="70" as="geometry"/>
                </mxCell>
                <mxCell id="267" value="" style="pointerEvents=1;verticalLabelPosition=bottom;shadow=0;dashed=0;align=center;html=1;verticalAlign=top;shape=mxgraph.electrical.resistors.resistor_2;fontSize=20;fontColor=#000000;strokeColor=#006EAF;fillColor=#1BA1E2;rotation=-90;" parent="1" vertex="1">
                    <mxGeometry x="1066.37" y="1517" width="74.38" height="17" as="geometry"/>
                </mxCell>
                <mxCell id="268" style="edgeStyle=orthogonalEdgeStyle;html=1;exitX=1;exitY=0.5;exitDx=0;exitDy=0;exitPerimeter=0;entryX=0;entryY=0.5;entryDx=0;entryDy=0;entryPerimeter=0;fontSize=20;fontColor=#000000;endArrow=none;endFill=0;strokeColor=#006EAF;strokeWidth=1;" parent="1" source="266" target="264" edge="1">
                    <mxGeometry relative="1" as="geometry"/>
                </mxCell>
                <mxCell id="269" style="edgeStyle=orthogonalEdgeStyle;html=1;exitX=1;exitY=1;exitDx=0;exitDy=0;exitPerimeter=0;fontSize=20;fontColor=#000000;endArrow=none;endFill=0;strokeColor=#006EAF;strokeWidth=1;" parent="1" source="250" target="218" edge="1">
                    <mxGeometry relative="1" as="geometry">
                        <Array as="points">
                            <mxPoint x="222" y="1460"/>
                        </Array>
                    </mxGeometry>
                </mxCell>
                <mxCell id="270" style="edgeStyle=orthogonalEdgeStyle;html=1;exitX=1;exitY=0;exitDx=0;exitDy=0;exitPerimeter=0;entryX=1.002;entryY=-0.409;entryDx=0;entryDy=0;entryPerimeter=0;fontSize=20;fontColor=#000000;endArrow=oval;endFill=1;strokeColor=#006EAF;strokeWidth=1;" parent="1" source="252" target="252" edge="1">
                    <mxGeometry relative="1" as="geometry"/>
                </mxCell>
                <mxCell id="271" style="edgeStyle=orthogonalEdgeStyle;html=1;exitX=0.5;exitY=0;exitDx=0;exitDy=0;exitPerimeter=0;entryX=0;entryY=0.5;entryDx=0;entryDy=0;entryPerimeter=0;fontSize=20;fontColor=#000000;endArrow=none;endFill=0;strokeColor=#006EAF;strokeWidth=1;" parent="1" source="272" target="267" edge="1">
                    <mxGeometry relative="1" as="geometry"/>
                </mxCell>
                <mxCell id="272" value="" style="pointerEvents=1;verticalLabelPosition=bottom;shadow=0;dashed=0;align=center;html=1;verticalAlign=top;shape=mxgraph.electrical.signal_sources.protective_earth;strokeColor=#006EAF;strokeWidth=1;fillColor=#1ba1e2;fontColor=#000000;fontSize=20;" parent="1" vertex="1">
                    <mxGeometry x="1091.0599999999997" y="1568.25" width="25" height="20" as="geometry"/>
                </mxCell>
                <mxCell id="273" style="edgeStyle=orthogonalEdgeStyle;html=1;exitX=0.5;exitY=0;exitDx=0;exitDy=0;exitPerimeter=0;entryX=0.5;entryY=0;entryDx=0;entryDy=0;fontSize=20;fontColor=#000000;endArrow=none;endFill=0;strokeColor=#006EAF;strokeWidth=1;" parent="1" source="274" target="230" edge="1">
                    <mxGeometry relative="1" as="geometry"/>
                </mxCell>
                <mxCell id="274" value="V&lt;sub style=&quot;font-size: 20px;&quot;&gt;dd&lt;/sub&gt;" style="verticalLabelPosition=top;verticalAlign=bottom;shape=mxgraph.electrical.signal_sources.vdd;shadow=0;dashed=0;align=center;strokeWidth=1;fontSize=20;html=1;flipV=1;fillColor=#1ba1e2;fontColor=#000000;strokeColor=#006EAF;" parent="1" vertex="1">
                    <mxGeometry x="1073.56" y="1243" width="60" height="40" as="geometry"/>
                </mxCell>
                <mxCell id="275" value="&lt;font style=&quot;font-size: 20px;&quot;&gt;Sample&lt;/font&gt;" style="text;html=1;strokeColor=none;fillColor=none;align=center;verticalAlign=middle;whiteSpace=wrap;rounded=0;fontSize=20;fontColor=#000000;" parent="1" vertex="1">
                    <mxGeometry x="412.25" y="1385" width="60" height="30" as="geometry"/>
                </mxCell>
                <mxCell id="276" value="&lt;font style=&quot;font-size: 20px;&quot;&gt;~Sample&lt;/font&gt;" style="text;html=1;strokeColor=none;fillColor=none;align=center;verticalAlign=middle;whiteSpace=wrap;rounded=0;fontSize=20;fontColor=#000000;" parent="1" vertex="1">
                    <mxGeometry x="251.62" y="1504" width="60" height="30" as="geometry"/>
                </mxCell>
                <mxCell id="277" value="Drain" style="text;html=1;strokeColor=none;fillColor=none;align=center;verticalAlign=middle;whiteSpace=wrap;rounded=0;fontSize=20;fontColor=#000000;" parent="1" vertex="1">
                    <mxGeometry x="527.44" y="1506.5" width="48.63" height="30" as="geometry"/>
                </mxCell>
                <mxCell id="278" value="Latch" style="text;html=1;strokeColor=none;fillColor=none;align=center;verticalAlign=middle;whiteSpace=wrap;rounded=0;fontSize=20;fontColor=#000000;" parent="1" vertex="1">
                    <mxGeometry x="824.75" y="1362" width="60" height="30" as="geometry"/>
                </mxCell>
                <mxCell id="281" value="R&lt;sub&gt;Out&lt;/sub&gt;" style="text;html=1;strokeColor=none;fillColor=none;align=center;verticalAlign=middle;whiteSpace=wrap;rounded=0;fontSize=20;fontColor=#000000;" parent="1" vertex="1">
                    <mxGeometry x="1116.06" y="1510.5" width="60" height="30" as="geometry"/>
                </mxCell>
                <mxCell id="282" value="C&lt;sub style=&quot;font-size: 20px;&quot;&gt;S&lt;/sub&gt;" style="text;html=1;strokeColor=none;fillColor=none;align=center;verticalAlign=middle;whiteSpace=wrap;rounded=0;fontSize=20;fontColor=#000000;" parent="1" vertex="1">
                    <mxGeometry x="414.25" y="1504" width="60" height="30" as="geometry"/>
                </mxCell>
                <mxCell id="283" value="C&lt;sub&gt;L&lt;/sub&gt;" style="text;html=1;strokeColor=none;fillColor=none;align=center;verticalAlign=middle;whiteSpace=wrap;rounded=0;fontSize=20;fontColor=#000000;" parent="1" vertex="1">
                    <mxGeometry x="850.25" y="1483" width="60" height="30" as="geometry"/>
                </mxCell>
                <mxCell id="292" style="edgeStyle=orthogonalEdgeStyle;html=1;exitX=0;exitY=0.25;exitDx=0;exitDy=0;exitPerimeter=0;entryX=0.5;entryY=0;entryDx=0;entryDy=0;entryPerimeter=0;endArrow=none;endFill=0;strokeColor=#006EAF;" parent="1" source="287" target="291" edge="1">
                    <mxGeometry relative="1" as="geometry">
                        <Array as="points">
                            <mxPoint x="680" y="1606"/>
                        </Array>
                    </mxGeometry>
                </mxCell>
                <mxCell id="287" value="" style="pointerEvents=1;verticalLabelPosition=bottom;shadow=0;dashed=0;align=center;html=1;verticalAlign=top;shape=mxgraph.electrical.resistors.potentiometer_2;fillColor=#006EAF;strokeColor=#006EAF;rotation=-180;" parent="1" vertex="1">
                    <mxGeometry x="582" y="1590" width="68" height="22" as="geometry"/>
                </mxCell>
                <mxCell id="291" value="-V&lt;sub style=&quot;font-size: 20px&quot;&gt;dd&lt;/sub&gt;" style="verticalLabelPosition=top;verticalAlign=bottom;shape=mxgraph.electrical.signal_sources.vdd;shadow=0;dashed=0;align=center;strokeWidth=1;fontSize=20;html=1;flipV=1;fillColor=#1ba1e2;fontColor=#000000;strokeColor=#006EAF;" parent="1" vertex="1">
                    <mxGeometry x="650" y="1556" width="60" height="40" as="geometry"/>
                </mxCell>
            </root>
        </mxGraphModel>
    </diagram>
</mxfile>